<svg xmlns="http://www.w3.org/2000/svg" width="94" height="16" viewBox="0 0 94 16">
    <g fill="none" fill-rule="evenodd">
        <path fill="#48C1CC" d="M24.058.022l9.087 15.818h-7.567v-2.841h2.67l-4.19-7.295-4.192 7.295h2.85v2.84H14.97z"/>
        <path fill="#282E46" d="M60.217 6.994v8.846h-3.38V.022l7.323 5.769v.042L71.488.064V15.84h-3.38v-8.8l-3.948 3.112v-.046zM40.54 8.652l-6.198-6.196L36.731.064l5.524 5.523 5.52-5.523 2.389 2.392-6.243 6.242v7.142h-3.382zM.168.064h7.89c1.323 0 2.45.47 3.385 1.404.934.935 1.404 2.065 1.404 3.388 0 1.32-.47 2.45-1.404 3.384-.935.935-2.062 1.404-3.386 1.404H3.55v6.196H.168V.064zm3.38 3.38v2.82h4.51c.388 0 .723-.139.996-.412.273-.273.411-.608.411-.996a1.37 1.37 0 0 0-.411-1 1.362 1.362 0 0 0-.997-.411H3.55z"/>
        <path fill="#4F5775" d="M90.147 11.94a5.451 5.451 0 0 0-4.097-6.595l2.6-4.853a7.925 7.925 0 0 1 5.024 5.696 5.17 5.17 0 0 1-.09 1.887c-.417 1.77-1.718 3.138-3.437 3.864"/>
        <path fill="#5FE1ED" d="M85.852 10.415c-1.092 2.006-1.72 3.213-2.644 4.935a7.881 7.881 0 0 1-1.559-.783 10.14 10.14 0 0 1-1.5-1.263 7.726 7.726 0 0 1-1.439-2.19v-.003l-.01-.033.005-.01a5.614 5.614 0 0 1-.032-.093c-.175-.673-.37-1.86-.216-2.77.015-.08.032-.16.05-.238.409-1.586 1.484-2.862 2.926-3.654a5.582 5.582 0 0 0 4.42 6.103"/>
        <path fill="#282E46" d="M85.867 12.408l-1.727 3.223c.133.031.267.06.403.084.507.074 1.002.116 1.483.125a7.91 7.91 0 0 0 7.648-9.653c.084.621.06 1.257-.09 1.888-.723 3.071-4.11 4.931-7.717 4.333"/>
        <path fill="#2FAEBA" d="M87.76.228l-1.777 3.244c-3.53-.405-6.7 1.487-7.476 4.495-.256.994.006 2.455.203 3.147-.408-.938-.652-2-.666-3.086.02-1.3.328-2.63.93-3.821a7.925 7.925 0 0 1 8.785-3.98"/>
    </g>
</svg>
