<?xml version="1.0" encoding="UTF-8" standalone="no"?>
<svg width="108px" height="19px" viewBox="0 0 108 19" version="1.1" xmlns="http://www.w3.org/2000/svg" xmlns:xlink="http://www.w3.org/1999/xlink">
    <!-- Generator: Sketch 3.7.2 (28276) - http://www.bohemiancoding.com/sketch -->
    <title>logo_w</title>
    <desc>Created with Sketch.</desc>
    <defs>
        <polygon id="path-1" points="0 18.4136501 107.883603 18.4136501 107.883603 0.211334773 0 0.211334773"></polygon>
    </defs>
    <g id="05_letters" stroke="none" stroke-width="1" fill="none" fill-rule="evenodd">
        <g id="letter_invoice" transform="translate(-412.000000, -24.000000)">
            <g id="logo_w" transform="translate(412.000000, 24.000000)">
                <g id="Group-7">
                    <mask id="mask-2" fill="white">
                        <use xlink:href="#path-1"></use>
                    </mask>
                    <g id="Clip-2"></g>
                    <polyline id="Fill-1" fill="#4BBABB" mask="url(#mask-2)" points="27.5064104 0.211334773 37.9735464 18.4276458 29.2586695 18.4276458 29.2586695 15.1547559 32.3335205 15.1547559 27.5064104 6.75734773 22.6795335 15.1547559 25.9659525 15.1547559 25.9659525 18.4276458 17.0462721 18.4276458 27.5064104 0.211334773"></polyline>
                    <polyline id="Fill-3" fill="#FFFFFF" mask="url(#mask-2)" points="69.1430929 8.24508855 69.1430929 18.4276458 65.2485616 18.4276458 65.2485616 0.211334773 73.6790929 6.8564838 73.6790929 6.90266955 82.1226868 0.257520518 82.1226868 18.4276458 78.2281555 18.4276458 78.2281555 8.29780562 73.6790929 11.8818661 73.6790929 11.8289158 69.1430929 8.24508855"></polyline>
                    <polyline id="Fill-4" fill="#FFFFFF" mask="url(#mask-2)" points="46.4833866 10.1494341 39.3488553 3.01490281 42.099473 0.257520518 48.4602765 6.61855724 54.8147819 0.257520518 57.5653996 3.01490281 50.3779179 10.2021512 50.3779179 18.4276458 46.4833866 18.4276458 46.4833866 10.1494341"></polyline>
                    <path d="M3.89453132,4.15205184 L3.89453132,7.39858315 L9.0852959,7.39858315 C9.5347905,7.39858315 9.91827214,7.23996544 10.2289762,6.92926134 C10.5462117,6.61179266 10.7050626,6.22831102 10.7050626,5.77858315 C10.7050626,5.32908855 10.5462117,4.94560691 10.2289762,4.62813823 C9.91827214,4.31066955 9.5347905,4.15205184 9.0852959,4.15205184 L3.89453132,4.15205184 L3.89453132,4.15205184 Z M0,0.257520518 L9.0852959,0.257520518 C10.6059266,0.257520518 11.9084579,0.799853132 12.979594,1.87752052 C14.0574946,2.95542117 14.599594,4.25795248 14.599594,5.77858315 C14.599594,7.29944708 14.0574946,8.60221166 12.979594,9.67987905 C11.9084579,10.7510151 10.6059266,11.2933477 9.0852959,11.2933477 L3.89453132,11.2933477 L3.89453132,18.4276458 L0,18.4276458 L0,0.257520518 L0,0.257520518 Z" id="Fill-5" fill="#FFFFFF" mask="url(#mask-2)"></path>
                    <path d="M98.6728121,14.4801641 L96.6891577,18.1897192 C96.8414773,18.2228423 96.9933305,18.2557322 97.1521814,18.2888553 C97.7339352,18.3681641 98.3026263,18.4211145 98.8580216,18.4276458 C103.850048,18.3879914 107.883603,14.3215464 107.883603,9.32275594 C107.883603,8.62857019 107.810825,7.96074298 107.665503,7.31274298 C107.757875,8.02675594 107.731516,8.76082937 107.559603,9.48813823 C106.726393,13.0255464 102.82533,15.1678186 98.6728121,14.4801641" id="Fill-6" fill="#8C97AE" mask="url(#mask-2)"></path>
                </g>
                <path d="M103.60559,13.9380648 C103.718022,13.4619784 103.777503,12.9660648 103.777503,12.4568553 C103.777503,9.46831102 101.687948,6.96891577 98.8843801,6.34074298 L101.879689,0.753434125 C104.76933,1.79821166 106.977849,4.27124838 107.665503,7.31274298 C107.757875,8.02675594 107.731516,8.76082937 107.559603,9.48813823 C107.083516,11.5245097 105.582479,13.098324 103.60559,13.9380648" id="Fill-8" fill="#FFFFFF"></path>
                <g id="Group-12" transform="translate(89.572354, 0.000000)">
                    <path d="M9.08716199,12.1792743 C7.83104968,14.49346 7.10374082,15.8820648 6.03913607,17.8657192 C5.4041987,17.634324 4.80261771,17.3301512 4.24722246,16.9664968 C3.64540821,16.5566566 3.06365443,16.060743 2.52155508,15.511879 C1.82713607,14.7645097 1.27197408,13.9315335 0.861900648,12.985892 L0.848604752,12.9462376 L0.85536933,12.9329417 C0.842073434,12.9000518 0.828777538,12.8603974 0.82224622,12.8272743 C0.617209503,12.0535464 0.392345572,10.6850022 0.571023758,9.6336933 C0.590850972,9.54761987 0.610678186,9.45501512 0.6305054,9.36241037 C1.09982721,7.53760691 2.33634557,6.0696933 3.996,5.15717495 C3.96940821,5.39510151 3.95611231,5.63979266 3.95611231,5.8844838 C3.95611231,8.99222462 6.15809935,11.5842246 9.08716199,12.1792743" id="Fill-9" fill="#6AC3CA"></path>
                    <path d="M11.2826177,0.449261339 L9.23948164,4.18517495 C5.17280346,3.72238445 1.52296328,5.8977797 0.6305054,9.36241037 C0.332863931,10.506324 0.637036717,12.1925702 0.861900648,12.985892 C0.392345572,11.9082246 0.108,10.6850022 0.094937365,9.4351879 C0.121295896,7.93438445 0.471654428,6.40675594 1.16607343,5.03144708 C3.11660475,1.38160691 7.27565443,-0.482850972 11.2826177,0.449261339" id="Fill-11" fill="#38AAAB"></path>
                </g>
            </g>
        </g>
    </g>
</svg>